<svg width="238" height="77" viewBox="0 0 238 77" fill="none" xmlns="http://www.w3.org/2000/svg">
<path d="M0 36.78H41.72V49.78H0V36.78ZM100 52.26C100.02 67.95 86.89 76.33 72.2 76.33C60.08 76.33 49.51 71.33 45.06 60.63L58.18 53.41C60.08 59.06 64.41 62.19 72.18 62.19C80.18 62.19 84.64 58.19 84.64 52.26C84.64 46.33 80.26 42.33 72.65 42.33H49.06L52.18 1.63004H96.35V15.13H66.42L65.42 28.33H73.42C87.67 28.33 100.02 36.57 100.02 52.26H100ZM99.77 38.26C99.77 15.67 111.12 0.190044 130.93 0.190044C150.74 0.190044 162.08 15.67 162.08 38.26C162.08 60.85 150.86 76.33 130.95 76.33C111.04 76.33 99.79 60.84 99.79 38.24L99.77 38.26ZM146.84 38.26C146.84 22.78 141.39 14.2 130.93 14.2C120.47 14.2 115.13 22.78 115.13 38.26C115.13 53.74 120.47 62.26 130.93 62.26C141.39 62.26 146.86 53.72 146.86 38.24L146.84 38.26ZM162.1 17.43C162.1 7.91004 170.1 0.170044 180.9 0.170044C191.7 0.170044 199.6 7.70004 199.6 17.43C199.6 27.16 191.7 34.69 180.9 34.69C170.1 34.69 162.1 27.05 162.1 17.43ZM220.74 10.73L227.52 14.33L176.68 67.42L170 63.76L220.74 10.73ZM187.8 17.43C187.8 13.77 184.91 10.84 180.8 10.84C179.039 10.84 177.35 11.5396 176.105 12.7849C174.86 14.0301 174.16 15.719 174.16 17.48C174.16 19.2411 174.86 20.93 176.105 22.1752C177.35 23.4205 179.039 24.12 180.8 24.12C181.703 24.1577 182.605 24.0128 183.451 23.6938C184.297 23.3749 185.069 22.8886 185.723 22.264C186.377 21.6394 186.897 20.8893 187.254 20.0587C187.611 19.2281 187.797 18.3341 187.8 17.43ZM199.8 58.85C199.8 49.33 207.7 41.59 218.49 41.59C229.28 41.59 237.2 49.33 237.2 58.85C237.2 68.37 229.26 76.11 218.51 76.11C207.76 76.11 199.82 68.33 199.82 58.85H199.8ZM225.39 58.85C225.432 57.4772 225.063 56.1231 224.331 54.9611C223.598 53.7991 222.536 52.8821 221.279 52.3275C220.023 51.7729 218.629 51.606 217.277 51.848C215.925 52.0901 214.676 52.7301 213.69 53.6862C212.704 54.6423 212.026 55.8709 211.742 57.2148C211.458 58.5587 211.582 59.9567 212.098 61.2297C212.613 62.5028 213.497 63.5931 214.636 64.361C215.774 65.1289 217.116 65.5394 218.49 65.54C219.388 65.5709 220.282 65.4207 221.121 65.0984C221.959 64.776 222.724 64.2881 223.37 63.6638C224.016 63.0395 224.529 62.2915 224.88 61.4645C225.23 60.6374 225.411 59.7483 225.41 58.85H225.39Z" fill="url(#paint0_linear_376_46)"/>
<defs>
<linearGradient id="paint0_linear_376_46" x1="0" y1="38.24" x2="237.2" y2="38.24" gradientUnits="userSpaceOnUse">
<stop stop-color="#FFD200"/>
<stop offset="1" stop-color="#F99F00"/>
</linearGradient>
</defs>
</svg>
