<svg width="56" height="37" viewBox="0 0 56 37" fill="none" xmlns="http://www.w3.org/2000/svg">
<path d="M21.1386 2.61176C21.1386 4.57835 19.5463 6.18739 17.6001 6.18739C15.654 6.18739 14.0617 4.57835 14.0617 2.61176H3.44629V34.7924H14.0617C14.0617 32.8258 15.654 31.2168 17.6001 31.2168C19.5463 31.2168 21.1386 32.8258 21.1386 34.7924H52.9848V2.61176H21.1386ZM18.4848 28.5351C18.4848 29.0714 18.1309 29.429 17.6001 29.429C17.0694 29.429 16.7155 29.0714 16.7155 28.5351V27.2836C16.7155 26.7473 17.0694 26.3897 17.6001 26.3897C18.1309 26.3897 18.4848 26.7473 18.4848 27.2836V28.5351ZM18.4848 23.9761C18.4848 24.5125 18.1309 24.8701 17.6001 24.8701C17.0694 24.8701 16.7155 24.5125 16.7155 23.9761V22.7247C16.7155 22.1883 17.0694 21.8308 17.6001 21.8308C18.1309 21.8308 18.4848 22.1883 18.4848 22.7247V23.9761ZM18.4848 19.3278C18.4848 19.8642 18.1309 20.2217 17.6001 20.2217C17.0694 20.2217 16.7155 19.8642 16.7155 19.3278V18.0764C16.7155 17.54 17.0694 17.1824 17.6001 17.1824C18.1309 17.1824 18.4848 17.54 18.4848 18.0764V19.3278ZM18.4848 14.7689C18.4848 15.3052 18.1309 15.6628 17.6001 15.6628C17.0694 15.6628 16.7155 15.3052 16.7155 14.7689V13.5174C16.7155 12.9811 17.0694 12.6235 17.6001 12.6235C18.1309 12.6235 18.4848 12.9811 18.4848 13.5174V14.7689ZM18.4848 10.1206C18.4848 10.6569 18.1309 11.0145 17.6001 11.0145C17.0694 11.0145 16.7155 10.6569 16.7155 10.1206V8.86911C16.7155 8.33276 17.0694 7.9752 17.6001 7.9752C18.1309 7.9752 18.4848 8.33276 18.4848 8.86911V10.1206ZM31.8419 12.8917C32.9919 12.8917 33.8766 13.7856 33.8766 14.9477C33.8766 16.1098 32.9919 17.0037 31.8419 17.0037C30.6919 17.0037 29.8073 16.1098 29.8073 14.9477C29.8073 13.7856 30.6919 12.8917 31.8419 12.8917ZM30.4266 24.5125C29.8958 23.9761 29.8958 23.0822 30.4266 22.5459L39.8919 12.9811C40.4227 12.4447 41.3073 12.4447 41.8381 12.9811C42.3689 13.5174 42.3689 14.4113 41.8381 14.9477L32.3727 24.5125C31.8419 25.0488 30.9573 25.0488 30.4266 24.5125ZM40.5112 24.5125C39.3612 24.5125 38.4766 23.6186 38.4766 22.4565C38.4766 21.2944 39.3612 20.4005 40.5112 20.4005C41.6612 20.4005 42.5458 21.2944 42.5458 22.4565C42.5458 23.6186 41.6612 24.5125 40.5112 24.5125Z" fill="#222222"/>
</svg>
