<svg width="230" height="26" viewBox="0 0 230 26" fill="none" xmlns="http://www.w3.org/2000/svg">
<g clip-path="url(#clip0_376_31)">
<path d="M17.21 7.52V24.69H12.35V18.16H4.86V24.69H0V7.52H4.86V14H12.35V7.52H17.21ZM38.56 7.52V24.69H33.71V22.69C32.9335 23.5334 31.9809 24.1954 30.9197 24.6292C29.8586 25.063 28.7149 25.2579 27.57 25.2C25.1565 25.2 22.8419 24.2413 21.1353 22.5347C19.4287 20.8281 18.47 18.5135 18.47 16.1C18.47 13.6865 19.4287 11.3719 21.1353 9.66533C22.8419 7.95875 25.1565 7 27.57 7C28.7149 6.9421 29.8586 7.13697 30.9197 7.57076C31.9809 8.00455 32.9335 8.66664 33.71 9.51V7.51L38.56 7.52ZM33.71 16.1C33.71 13.22 31.48 11.26 28.47 11.26C25.46 11.26 23.27 13.26 23.27 16.1C23.27 18.94 25.5 20.94 28.47 20.94C31.44 20.94 33.71 19 33.71 16.1ZM46.89 15.93C46.89 10.4 48.02 7.52 54.08 4.81C58.08 3.02 60.08 2.58 61.08 0L65.08 2.09C64.36 5.09 61.65 6.32 57.74 7.69C54.35 8.89 53.25 9.96 52.65 11.47C54.217 10.1203 56.2328 9.40675 58.3 9.47C62.18 9.47 66.3 12.25 66.3 17.06C66.3 21.69 62.57 25.13 56.81 25.13C50.77 25.17 46.89 21.22 46.89 15.93ZM61.42 17.1C61.42 14.76 59.5 13.05 56.72 13.05C54.42 13.05 52 14.46 52 17C52 19.54 54.11 21.16 56.78 21.16C59.45 21.16 61.42 19.4 61.42 17.1ZM86.13 7.52V24.69H81.27V22.69C80.4935 23.5334 79.5409 24.1954 78.4797 24.6292C77.4186 25.063 76.2749 25.2579 75.13 25.2C72.7165 25.2 70.4019 24.2413 68.6953 22.5347C66.9887 20.8281 66.03 18.5135 66.03 16.1C66.03 13.6865 66.9887 11.3719 68.6953 9.66533C70.4019 7.95875 72.7165 7 75.13 7C76.2749 6.9421 77.4186 7.13697 78.4797 7.57076C79.5409 8.00455 80.4935 8.66664 81.27 9.51V7.51L86.13 7.52ZM81.27 16.1C81.27 13.22 79.05 11.26 76.04 11.26C73.03 11.26 70.84 13.26 70.84 16.1C70.84 18.94 73.06 20.94 76.04 20.94C79.02 20.94 81.27 19 81.27 16.1ZM102.17 20C102.17 22.78 99.57 25.15 94.56 25.15C90.65 25.15 88.09 23.67 86.77 21.03L90.77 18.9C91.076 19.657 91.6202 20.2938 92.3202 20.7142C93.0202 21.1345 93.838 21.3156 94.65 21.23C96.46 21.23 97.48 20.55 97.48 19.45C97.48 18.35 96.72 17.87 95.25 17.87H92.53V14.11H94.53C95.97 14.11 96.72 13.53 96.72 12.53C96.72 11.53 95.81 10.88 94.38 10.88C93.6444 10.8389 92.914 11.0251 92.2879 11.4133C91.6618 11.8015 91.1702 12.3729 90.88 13.05L87 11C88.43 8.38 91 7 94.34 7C98.82 7 101.34 9.4 101.34 12.12C101.363 12.8759 101.182 13.6241 100.818 14.2869C100.455 14.9498 99.9199 15.5033 99.27 15.89C100.115 16.1966 100.847 16.7549 101.365 17.4897C101.884 18.2246 102.165 19.1007 102.17 20ZM102 16.1C102 11 106.39 7 111.93 7C117.47 7 121.93 11 121.93 16.06C121.93 21.12 117.48 25.13 111.93 25.13C106.38 25.13 102 21.22 102 16.1ZM117.07 16.1C117.07 13.32 114.85 11.37 111.95 11.37C111.029 11.442 110.149 11.781 109.417 12.3456C108.686 12.9102 108.135 13.6758 107.832 14.5487C107.53 15.4216 107.488 16.3639 107.712 17.2601C107.937 18.1563 108.418 18.9676 109.097 19.5946C109.775 20.2215 110.622 20.637 111.533 20.79C112.445 20.943 113.381 20.8269 114.227 20.4561C115.073 20.0852 115.793 19.4755 116.298 18.7018C116.803 17.9281 117.071 17.0239 117.07 16.1ZM139.29 19.81C139.29 22.59 137.14 24.69 133 24.69H123.09V7.52H132.24C136.31 7.52 138.5 9.52 138.5 12.36C138.52 13.059 138.36 13.7514 138.037 14.3712C137.713 14.9909 137.235 15.5173 136.65 15.9C137.435 16.205 138.107 16.7436 138.575 17.4428C139.044 18.1421 139.286 18.9684 139.27 19.81H139.29ZM127.65 11.16V14.25H131.79C133.11 14.25 133.86 13.77 133.86 12.7C133.86 11.63 133.11 11.16 131.79 11.16H127.65ZM134.54 19.3C134.54 18.3 133.71 17.75 132.43 17.75H127.65V20.94H132.43C133.73 20.94 134.52 20.36 134.52 19.3H134.54ZM139.1 16.1C139.08 11 143.48 7 149 7C154.52 7 159 11 159 16.06C159 21.12 154.56 25.13 149 25.13C143.44 25.13 139.08 21.22 139.08 16.1H139.1ZM154.16 16.1C154.16 13.32 151.94 11.37 149.04 11.37C148.119 11.442 147.239 11.781 146.507 12.3456C145.776 12.9102 145.225 13.6758 144.922 14.5487C144.62 15.4216 144.578 16.3639 144.802 17.2601C145.027 18.1563 145.508 18.9676 146.187 19.5946C146.865 20.2215 147.712 20.637 148.623 20.79C149.535 20.943 150.471 20.8269 151.317 20.4561C152.163 20.0852 152.883 19.4755 153.388 18.7018C153.893 17.9281 154.161 17.0239 154.16 16.1ZM169.6 21.1C170.386 21.1369 171.171 21.0021 171.9 20.7051C172.628 20.408 173.284 19.9559 173.82 19.38L177.74 21.44C176.762 22.6613 175.507 23.6322 174.08 24.2721C172.652 24.9121 171.092 25.2027 169.53 25.12C163.2 25.12 159.21 21.12 159.21 16.05C159.21 10.98 163.21 6.99 169.15 6.99C174.73 6.99 178.68 10.99 178.68 16.05C178.675 16.6614 178.612 17.2709 178.49 17.87H164.29C165 20.19 167 21.15 169.58 21.15L169.6 21.1ZM173.82 14.44C173.572 13.4044 172.964 12.4903 172.105 11.8605C171.247 11.2306 170.192 10.9257 169.13 11C166.53 11 164.76 12.27 164.2 14.47L173.82 14.44ZM204.63 5.13H197.51V24.69H192.31V5.18H185.23V0.65H204.63V5.13ZM202.56 12.62C202.56 5.62 208.62 0.12 216.23 0.12C223.84 0.12 229.94 5.58 229.94 12.62C229.94 19.66 223.83 25.12 216.23 25.12C208.63 25.12 202.54 19.67 202.54 12.67L202.56 12.62ZM224.74 12.62C224.74 7.98 221.01 4.72 216.23 4.72C211.45 4.72 207.7 8 207.7 12.67C207.7 17.34 211.42 20.53 216.21 20.53C221 20.53 224.72 17.27 224.72 12.67L224.74 12.62Z" fill="url(#paint0_linear_376_31)"/>
</g>
<defs>
<linearGradient id="paint0_linear_376_31" x1="0" y1="12.58" x2="229.92" y2="12.58" gradientUnits="userSpaceOnUse">
<stop stop-color="#FFD200"/>
<stop offset="1" stop-color="#F99F00"/>
</linearGradient>
<clipPath id="clip0_376_31">
<rect width="229.92" height="25.17" fill="white"/>
</clipPath>
</defs>
</svg>
