<svg width="17" height="26" viewBox="0 0 17 26" fill="none" xmlns="http://www.w3.org/2000/svg">
<path fill-rule="evenodd" clip-rule="evenodd" d="M8.5 0C6.90462 0 4.78849 0.528115 3.06083 1.92353C1.3138 3.33459 0 5.60481 0 9C0 12.1407 1.39253 15.1964 3.076 17.89C4.23997 19.7524 5.57852 21.4923 6.72414 22.9814L6.72417 22.9814C7.22934 23.6381 7.697 24.246 8.09563 24.7941L8.49381 25.3416L8.9 24.8C9.06775 24.5763 9.24752 24.339 9.43691 24.0889L9.43705 24.0887L9.43707 24.0886C10.6484 22.4892 12.253 20.3703 13.6206 17.9999C15.1996 15.2629 16.5 12.1297 16.5 9C16.5 5.62359 15.3255 3.35476 13.7043 1.93621C12.098 0.530733 10.0994 0 8.5 0ZM1 9C1 5.89519 2.1862 3.91541 3.68917 2.70147C5.21151 1.47189 7.09538 1 8.5 1C9.90061 1 11.652 1.46927 13.0457 2.68879C14.4245 3.89524 15.5 5.87641 15.5 9C15.5 11.8703 14.3004 14.8204 12.7544 17.5001C11.4208 19.8117 9.85733 21.8768 8.64447 23.4787L8.50394 23.6644C8.18297 23.2363 7.83755 22.7874 7.4771 22.3191C6.34391 20.8466 5.06212 19.181 3.924 17.36C2.27414 14.7202 1 11.8593 1 9ZM11.5 9C11.5 10.6569 10.1569 12 8.5 12C6.84315 12 5.5 10.6569 5.5 9C5.5 7.34315 6.84315 6 8.5 6C10.1569 6 11.5 7.34315 11.5 9ZM12.5 9C12.5 11.2091 10.7091 13 8.5 13C6.29086 13 4.5 11.2091 4.5 9C4.5 6.79086 6.29086 5 8.5 5C10.7091 5 12.5 6.79086 12.5 9Z" fill="#BA3E14"/>
</svg>
