<svg width="131" height="108" viewBox="0 0 131 108" fill="none" xmlns="http://www.w3.org/2000/svg">
<path d="M-18.6098 22.72L-27.7998 26.95L6.5502 39.64L15.7402 35.41L-18.6098 22.72Z" fill="white"/>
<path d="M-2.25043 15.1899L-11.4404 19.4199L22.9096 32.1099L32.0996 27.8799L-2.25043 15.1899Z" fill="white"/>
<path d="M14.1002 7.66003L4.91016 11.89L39.2601 24.58L48.4501 20.35L14.1002 7.66003Z" fill="white"/>
<path d="M30.4595 0.130005L21.2695 4.36001L55.6195 17.05L64.8095 12.82L30.4595 0.130005Z" fill="white"/>
<path d="M46.8101 -7.41003L37.6201 -3.17003L71.9701 9.51997L81.1701 5.27996L46.8101 -7.41003Z" fill="white"/>
<path d="M63.1705 -14.9399L53.9805 -10.6999L88.3305 1.98006L97.5205 -2.24994L63.1705 -14.9399Z" fill="white"/>
</svg>
