<svg width="311" height="43" viewBox="0 0 311 43" fill="none" xmlns="http://www.w3.org/2000/svg">
<g clip-path="url(#clip0_376_21)">
<path d="M0 21C0 9.18 9.62 0 23.05 0C31.15 0 38.3 3.75 42.1 9.52L34.57 13.52C32.42 9.94 28.11 7.74 23.05 7.74C14.37 7.73 8.67 13.22 8.67 21C8.67 28.78 14.37 34.22 23.05 34.22C28.11 34.22 32.48 32.03 34.57 28.5L42.1 32.5C38.37 38.27 31.21 42 23.05 42C9.62 42 0 32.79 0 21ZM71.1 33.59V41.21H43.69V0.81H70.78V8.43H52.42V17H69.2V24.5H52.42V33.56L71.1 33.59ZM98 41.21L82.18 22.28V41.21H73.44V0.81H82.18V18.64L97.38 0.81H107.44L91 20.43L108 41.21H98ZM140.23 14.37C140.23 21.93 133.64 27.94 125.1 27.94H117.31V41.21H108.57V0.81H125.1C133.65 0.81 140.24 6.81 140.24 14.37H140.23ZM131.55 14.37C131.554 13.5369 131.388 12.7119 131.061 11.9456C130.734 11.1794 130.253 10.4883 129.649 9.91488C129.044 9.34147 128.329 8.89792 127.547 8.61158C126.764 8.32525 125.932 8.20219 125.1 8.25H117.31V20.49H125.1C125.931 20.5348 126.763 20.4098 127.545 20.1225C128.327 19.8352 129.041 19.3917 129.646 18.819C130.25 18.2463 130.732 17.5565 131.061 16.7915C131.39 16.0266 131.56 15.2027 131.56 14.37H131.55ZM169.55 33.59V41.21H142.14V0.81H169.23V8.43H150.87V17H167.65V24.5H150.87V33.56L169.55 33.59ZM201.21 8.43H189.21V41.21H180.5V8.43H168.6V0.81H201.21V8.43ZM236.16 0.81V41.21H227.48V24.47H211V41.21H202.26V0.81H211V16.86H227.46V0.81H236.16ZM266.42 33.94H248.75L246.09 41.21H236.66L252.17 0.81H263L278.57 41.21H269.08L266.42 33.94ZM263.7 26.49L257.62 10L251.54 26.5L263.7 26.49ZM310.86 41.21H302.13V27.21H297.13L286.94 41.21H277.13L287.95 26.32C282.38 24.47 278.39 19.63 278.39 14.2C278.38 6.81 285 0.81 293.14 0.81H310.86V41.21ZM302.13 20.21V8.25H293.13C291.539 8.25 290.013 8.88214 288.887 10.0074C287.762 11.1326 287.13 12.6587 287.13 14.25C287.13 15.8413 287.762 17.3674 288.887 18.4926C290.013 19.6179 291.539 20.25 293.13 20.25L302.13 20.21Z" fill="url(#paint0_linear_376_21)"/>
</g>
<defs>
<linearGradient id="paint0_linear_376_21" x1="0" y1="21.01" x2="310.86" y2="21.01" gradientUnits="userSpaceOnUse">
<stop stop-color="#FFD200"/>
<stop offset="1" stop-color="#F99F00"/>
</linearGradient>
<clipPath id="clip0_376_21">
<rect width="310.86" height="42.02" fill="white"/>
</clipPath>
</defs>
</svg>
